<?xml version="1.0" standalone="no"?><!DOCTYPE svg PUBLIC "-//W3C//DTD SVG 1.1//EN" "http://www.w3.org/Graphics/SVG/1.1/DTD/svg11.dtd"><svg t="1718721455365" class="icon" viewBox="0 0 1077 1024" version="1.1" xmlns="http://www.w3.org/2000/svg" p-id="45008" xmlns:xlink="http://www.w3.org/1999/xlink" width="210.3515625" height="200"><path d="M671.797895 873.418105l0.161684 0.269474-4.796632-8.084211 0.161685 0.269474-4.742737-8.08421c-0.700632-1.616842-1.401263-3.233684-2.263579-4.796632l-64.997053-110.592c-1.724632-2.910316-3.610947-4.311579-7.168-4.311579-39.235368 0.107789-78.309053 0-117.490526 0-23.066947 0-46.08 0.161684-69.093053 0.10779-10.24 0-19.941053-2.425263-27.216842-9.916632a61.978947 61.978947 0 0 1-8.569263-11.210105 19044.244211 19044.244211 0 0 1-59.392-98.896842c-21.557895-36.109474-42.954105-72.218947-64.61979-108.274527-1.293474-2.209684-1.401263-6.575158-4.850526-5.982316-1.994105 0.323368-3.664842 3.826526-5.066105 6.144-42.361263 71.518316-84.614737 143.036632-126.922105 214.608843L11.856842 882.095158a78.632421 78.632421 0 0 0-11.15621 51.523368c4.850526 36.971789 37.888 62.625684 73.135157 62.787369 42.684632 0.215579 85.207579 0.053895 127.838316 0.107789 8.461474-0.107789 16.815158-1.509053 24.791579-4.203789 22.366316-7.329684 39.343158-21.450105 52.385684-40.097684 6.521263-9.377684 12.126316-19.402105 18.216421-29.103158 3.449263-5.605053 6.790737-11.264 10.509474-16.653474 7.006316-10.078316 16.761263-15.090526 29.642105-15.090526 111.562105 0.107789 223.070316 0.107789 334.578527 0 2.155789 0 4.257684 0.107789 6.305684-0.053895 2.263579-0.431158 3.125895-2.964211 1.94021-4.850526l-3.233684-5.173895a5.012211 5.012211 0 0 1-0.592842-1.293474 4.904421 4.904421 0 0 0-0.754526-1.509052l-3.664842-5.066106zM931.247158 996.675368l0.053895-0.053894c0-0.053895 0-0.107789 0.107789-0.10779h69.578105c9.216 0 18.378105-1.616842 27.001264-4.742737a73.296842 73.296842 0 0 0 49.529263-76.907789c-1.131789-11.856842-5.389474-22.797474-11.317895-33.145263-5.766737-10.078316-11.856842-20.048842-17.677474-30.127158l-188.631579-325.039158a208632.454737 208632.454737 0 0 0-171.978105-295.235368 28049.946947 28049.946947 0 0 0-82.458947-140.126316 75.237053 75.237053 0 0 0-9.431579-12.611369 78.416842 78.416842 0 0 0-87.417263-20.695579 88.495158 88.495158 0 0 0-44.517053 38.858106c-16.168421 27.486316-32.229053 55.080421-48.181895 82.674526-14.551579 24.953263-28.833684 50.068211-43.546947 74.913684-2.479158 4.149895-2.317474 7.221895 0.323368 11.210105 4.581053 6.844632 8.515368 14.120421 12.773053 21.180632 30.181053 49.744842 60.577684 99.381895 90.489263 149.288421 71.141053 118.676211 142.228211 237.514105 213.153684 356.405895 29.480421 49.475368 58.529684 99.220211 87.686737 148.857263 5.173895 9.162105 11.587368 17.623579 18.970947 25.168842 20.102737 20.048842 43.978105 31.097263 73.350737 30.342737 20.695579-0.538947 41.391158-0.107789 62.140632-0.10779z" p-id="45009" fill="#1296db"></path></svg>